<?xml version="1.0" encoding="UTF-8" standalone="no"?>
<!-- Created with Inkscape (http://www.inkscape.org/) -->

<svg
   xmlns:dc="http://purl.org/dc/elements/1.1/"
   xmlns:cc="http://creativecommons.org/ns#"
   xmlns:rdf="http://www.w3.org/1999/02/22-rdf-syntax-ns#"
   xmlns:svg="http://www.w3.org/2000/svg"
   xmlns="http://www.w3.org/2000/svg"
   xmlns:sodipodi="http://sodipodi.sourceforge.net/DTD/sodipodi-0.dtd"
   xmlns:inkscape="http://www.inkscape.org/namespaces/inkscape"
   width="512"
   height="512"
   viewBox="0 0 135.46666 135.46667"
   version="1.1"
   id="svg8"
   inkscape:version="0.92.5 (2060ec1f9f, 2020-04-08)"
   sodipodi:docname="matt-ch-face-icon-web.svg">
  <defs
     id="defs2" />
  <sodipodi:namedview
     id="base"
     pagecolor="#ffffff"
     bordercolor="#666666"
     borderopacity="1.0"
     inkscape:pageopacity="1"
     inkscape:pageshadow="2"
     inkscape:zoom="0.49497475"
     inkscape:cx="890.4106"
     inkscape:cy="124.43313"
     inkscape:document-units="mm"
     inkscape:current-layer="layer1"
     showgrid="false"
     units="px"
     inkscape:window-width="1864"
     inkscape:window-height="1016"
     inkscape:window-x="56"
     inkscape:window-y="1107"
     inkscape:window-maximized="1" />
  <metadata
     id="metadata5">
    <rdf:RDF>
      <cc:Work
         rdf:about="">
        <dc:format>image/svg+xml</dc:format>
        <dc:type
           rdf:resource="http://purl.org/dc/dcmitype/StillImage" />
        <dc:title></dc:title>
      </cc:Work>
    </rdf:RDF>
  </metadata>
  <g
     inkscape:label="Layer 1"
     inkscape:groupmode="layer"
     id="layer1"
     transform="translate(0,-161.53332)">
    <g
       id="g96">
      <rect
         y="161.53333"
         x="3.5603841e-06"
         height="135.46666"
         width="135.46666"
         id="rect88"
         style="fill:#fff6d5;stroke-width:0.52003747" />
      <g
         transform="matrix(3.1309909,0,0,3.1311109,80.599261,-463.52205)"
         id="g75">
        <g
           transform="translate(-10.205357,-9.827381)"
           id="g86">
          <path
             style="fill:#fbcfc1;stroke-width:0.08466666"
             d="m -5.3753303,252.09483 c 0,-0.68537 -0.02053,-0.71847 -0.550333,-0.88731 -1.224333,-0.39015 -3.19091,-1.50687 -4.5719997,-2.59621 -1.470087,-1.15953 -3.749087,-3.99109 -4.118685,-5.11729 -0.05407,-0.16476 -0.180271,-0.43291 -0.280445,-0.59589 -0.100174,-0.16299 -0.2753,-0.50589 -0.389169,-0.762 l -0.207034,-0.46567 -0.02203,-16.10783 -0.02203,-16.10783 H 6.0961367 27.729329 l -0.0011,15.9385 c -0.0011,15.39078 -0.0066,15.95595 -0.161079,16.44649 -0.181025,0.57481 -0.871676,2.0295 -1.064946,2.24306 -0.07015,0.0775 -0.127549,0.16721 -0.127549,0.19931 0,0.15635 -0.719184,1.20842 -1.374227,2.01032 -0.722977,0.88506 -1.933154,2.09416 -2.357677,2.35559 -0.120029,0.0739 -0.444431,0.31803 -0.720891,0.54249 -0.802396,0.65144 -2.634641,1.62301 -3.811674,2.02118 l -0.794864,0.26889 v 0.61941 0.61942 H 5.9699987 -5.3753343 Z m 12.45077,-12.62115 c 0.720285,-0.13783 1.272975,-0.31305 1.897805,-0.60164 0.723008,-0.33394 1.9920163,-1.77171 1.9921133,-2.25704 1.8e-5,-0.0882 -0.933087,-0.10473 -4.8421613,-0.086 -2.663201,0.0128 -4.857626,0.0387 -4.8765,0.0575 -0.106688,0.10668 0.584862,1.13125 1.076788,1.59531 0.607207,0.5728 1.196939,0.90036 1.995518,1.10839 1.282579,0.3341 1.791926,0.36799 2.756437,0.18343 z"
             id="path79"
             inkscape:connector-curvature="0" />
          <path
             style="fill:#051629;stroke-width:0.08466666"
             d="m -5.2832683,252.08754 c 0.01054,-0.36103 -0.02124,-0.67974 -0.07413,-0.74347 -0.05092,-0.0614 -0.29486,-0.18253 -0.542089,-0.26928 -2.230024,-0.78249 -4.6952637,-2.46799 -6.3687237,-4.35435 -0.743847,-0.83847 -0.779095,-0.88503 -1.455234,-1.92202 -0.630332,-0.96674 -1.037016,-1.76669 -1.504115,-2.95863 l -0.265436,-0.67733 -0.02161,-15.85383 -0.02161,-15.85383 0.360274,-4e-5 0.360274,-3e-5 -0.02647,4.62599 c -0.02617,4.57333 0.02373,5.50114 0.223951,4.16402 0.17383,-1.16087 0.73867,-2.51439 1.565862,-3.75228 0.753607,-1.12776 2.239731,-2.39172 3.6553257,-3.10887 1.334057,-0.67585 2.265894,-0.90459 3.962115,-0.97259 2.845902,-0.11409 5.14269699,0.75794 7.223938,2.74273 1.428461,1.36226 2.447031,3.32392 2.818216,5.42759 l 0.145004,0.82181 h 1.349696 1.349697 l 0.104572,-0.635 c 0.152664,-0.92704 0.574448,-2.29357 0.923026,-2.9905 0.5059,-1.01147 1.377871,-2.1534 2.2104923,-2.89486 0.418971,-0.37309 0.871448,-0.73388 1.005504,-0.80174 0.134057,-0.0679 0.396139,-0.2242 0.582406,-0.34742 1.445582,-0.95627 3.329176,-1.41533 5.426879,-1.3226 1.267772,0.056 2.131056,0.21655 3.039787,0.56517 0.39084,0.14994 1.21015,0.56779 1.539255,0.78501 0.194656,0.12848 0.378627,0.23361 0.408822,0.23361 0.09819,0 1.257824,0.98846 1.704234,1.45267 0.391047,0.40664 1.554688,2.00623 1.554688,2.13714 0,0.029 0.08,0.23326 0.177772,0.45394 0.350123,0.79026 0.393435,0.91512 0.579713,1.67125 0.0803,0.32596 0.180847,0.57361 0.223429,0.55033 0.04524,-0.0247 0.07742,-1.86356 0.07742,-4.42387 v -4.38153 l 0.359833,3e-5 0.359833,4e-5 v 15.87614 c 0,10.41554 -0.02912,15.934 -0.08467,16.04434 -0.04657,0.0925 -0.122767,0.24386 -0.169333,0.33637 -0.04657,0.0925 -0.08523,0.21632 -0.08591,0.27516 -0.002,0.17202 -1.033363,2.16616 -1.478485,2.85865 -1.485524,2.31109 -3.774846,4.35241 -6.230123,5.55523 -0.686229,0.33617 -1.803782,0.79252 -2.301979,0.93999 -0.124872,0.037 -0.148167,0.1488 -0.148167,0.71132 v 0.66746 H 16.511 15.791333 v -0.42599 c 0,-0.27471 -0.03968,-0.44122 -0.111746,-0.46887 -0.06146,-0.0236 -0.558711,0.0157 -1.105003,0.0873 -0.829028,0.10868 -2.22096,0.13009 -8.4184203,0.12947 -7.408648,-7.6e-4 -8.15429,-0.0243 -9.73233,-0.30773 l -0.275167,-0.0494 v 0.51761 0.51761 h -0.725195 -0.725195 z m 12.945475,-12.58879 c 1.185176,-0.31243 1.872923,-0.72947 2.7636383,-1.67582 0.150914,-0.16034 0.319433,-0.38894 0.374485,-0.508 0.05505,-0.11906 0.133751,-0.28263 0.174884,-0.36349 0.04113,-0.0809 0.07479,-0.24278 0.07479,-0.35983 V 236.3788 H 6.0546707 c -5.66942401,0 -5.18581701,-0.075 -4.760669,0.73814 0.293486,0.56131 1.177347,1.47145 1.742628,1.79444 1.372473,0.78421 3.064085,0.99901 4.625577,0.58737 z m -12.097119,-2.17457 c 0.682123,-2.42338 2.800272,-4.55553 5.34124199,-5.37657 1.94840801,-0.62957 2.89674301,-0.7703 5.19067301,-0.7703 2.244507,0 3.130304,0.1265 5.0800003,0.72547 1.670984,0.51336 3.333556,1.6988 4.318264,3.07902 0.541933,0.75959 0.712979,1.10133 1.017045,2.032 l 0.276622,0.84666 0.411368,0.0288 c 0.585254,0.0409 1.672954,-0.14391 2.528034,-0.42962 1.58167,-0.52849 3.489358,-1.97696 4.712989,-3.57849 0.106737,-0.1397 0.240151,-0.302 0.296477,-0.36065 0.237259,-0.24709 1.321107,-2.08603 1.663211,-2.82194 0.70442,-1.51529 0.657908,-1.13572 0.631915,-5.15708 -0.01508,-2.33298 -0.05293,-3.59241 -0.107633,-3.5815 -0.04641,0.009 -0.113522,0.16166 -0.149149,0.33867 -0.09675,0.48072 -0.333545,1.2421 -0.414756,1.3336 -0.03926,0.0442 -0.07139,0.13038 -0.07139,0.19142 0,0.2401 -0.955862,1.9735 -1.180704,2.14115 -0.03123,0.0233 -0.111719,0.12276 -0.17887,0.22107 -0.447146,0.65461 -1.857699,1.89492 -2.708775,2.38186 -2.300093,1.31598 -5.148437,1.69878 -7.497958,1.00769 -1.874117,-0.55126 -3.098278,-1.25981 -4.404941,-2.5496 -0.7943613,-0.78411 -1.7784163,-2.23227 -2.0599713,-3.03151 -0.102143,-0.28995 -0.21661,-0.5867 -0.254369,-0.65945 -0.08082,-0.15571 -0.387576,-1.46209 -0.48584,-2.06906 l -0.06853,-0.42334 h -1.350254 -1.350253 l -0.09922,0.64169 c -0.159213,1.02973 -0.636096,2.49711 -1.062272,3.26862 -1.610553,2.91564 -4.43457901,4.78222 -7.738246,5.11471 -1.624993,0.16355 -3.293561,-0.11685 -4.906344,-0.82449 -0.804492,-0.35298 -1.0764107,-0.51314 -1.8644517,-1.09814 -1.102837,-0.81869 -1.977713,-1.83135 -2.698112,-3.12305 -0.525557,-0.94235 -0.857603,-1.8704 -1.00237,-2.80158 -0.05297,-0.34068 -0.127849,-0.59993 -0.166409,-0.57609 -0.11189,0.0692 -0.08789,7.6858 0.0251,7.96685 0.05237,0.13025 0.123458,0.31302 0.157985,0.40615 0.08937,0.24106 0.724604,1.48916 1.163487,2.286 0.535137,0.97159 1.735045,2.5096 2.503499,3.20892 1.1496357,1.04619 2.7077617,1.98034 3.7844867,2.26892 0.73903,0.19807 1.443093,0.30139 1.982232,0.29089 l 0.585232,-0.0114 z m 10.019238,-8.05801 c -1.221089,-0.17554 -2.027323,-0.92092 -2.027323,-1.87432 0,-0.48586 0.206572,-0.74972 0.58695,-0.74972 0.368233,0 0.618354,0.20205 0.735931,0.59448 0.07982,0.26642 0.171777,0.36902 0.452545,0.50494 0.395459,0.19144 1.014786,0.22287 1.374424,0.0698 0.330933,-0.14089 0.617817,-0.41014 0.617817,-0.57985 0,-0.0787 0.07897,-0.24354 0.175478,-0.36624 0.239428,-0.30438 0.679963,-0.30667 0.981536,-0.005 0.191017,0.19101 0.212955,0.2703 0.177341,0.64095 -0.0471,0.49016 -0.378556,1.02191 -0.824182,1.32222 -0.526576,0.35486 -1.512777,0.54894 -2.250517,0.44288 z m -9.139322,-0.8896 c 1.451644,-0.30688 2.64605899,-0.84211 3.63411799,-1.6285 0.74255,-0.59099 0.78808,-0.63708 1.50956801,-1.52799 1.067949,-1.31872 1.756647,-3.33178 1.756647,-5.13465 0,-1.07346 -0.417084,-2.76264 -0.932259,-3.77563 -0.938442,-1.84526 -2.89415501,-3.51985 -4.85744,-4.15922 -0.65968,-0.21484 -1.882777,-0.40675 -2.592301,-0.40675 -0.661666,0 -1.89895,0.18599 -2.539859,0.38179 -1.173889,0.35863 -2.5307197,1.22666 -3.5194577,2.25155 -1.846107,1.91361 -2.666629,4.60605 -2.202526,7.22729 0.525724,2.96928 2.621673,5.41738 5.5101767,6.43598 1.271529,0.44839 3.038591,0.58869 4.233333,0.33613 z m -2.032,-6.24225 c -0.551524,-0.14272 -0.908262,-0.42249 -1.270597,-0.99647 -0.31541,-0.49964 -0.343435,-1.3732 -0.06143,-1.91491 0.354595,-0.68116 1.1994,-1.22029 1.904746,-1.21554 0.554889,0.004 1.670951,0.6638 1.670951,0.98824 0,0.0611 0.03207,0.11116 0.07126,0.11116 0.114271,0 0.267402,0.61789 0.267402,1.07898 0,0.95562 -0.540741,1.6182 -1.600134,1.96065 -0.337717,0.10917 -0.522345,0.10689 -0.982199,-0.0121 z m 24.3006453,6.24588 c 1.488739,-0.28484 2.867317,-0.93624 3.955367,-1.86897 0.786848,-0.67452 1.651756,-1.75524 2.050428,-2.56203 0.394441,-0.79824 0.515379,-1.14831 0.722274,-2.09074 0.369383,-1.68257 0.133512,-3.72902 -0.619668,-5.37633 -0.432648,-0.94626 -1.526091,-2.28175 -2.404119,-2.93629 -0.17541,-0.13076 -0.337979,-0.26269 -0.361262,-0.29317 -0.101601,-0.13302 -1.863203,-1.00274 -2.286,-1.12862 -2.97714,-0.88642 -6.034698,-0.16804 -8.28173,1.94581 -1.276308,1.20065 -2.0524253,2.58948 -2.4362703,4.35957 -0.139887,0.64509 -0.161152,2.83719 -0.03244,3.34437 0.418566,1.64933 0.691074,2.2425 1.5870023,3.45443 0.627683,0.84907 1.866785,1.89171 2.773653,2.33388 0.672823,0.32805 1.613726,0.65555 2.328846,0.81058 0.72889,0.15802 2.198091,0.16169 3.003922,0.008 z m -1.948646,-6.24189 c -0.489759,-0.13156 -0.974531,-0.48204 -1.268064,-0.91678 -0.235,-0.34806 -0.255936,-0.43794 -0.255936,-1.09873 0,-0.64798 0.02353,-0.75433 0.236173,-1.06755 0.311323,-0.45857 0.845034,-0.82966 1.392707,-0.96833 0.392288,-0.0993 0.499922,-0.0948 0.931334,0.0393 0.885478,0.27531 1.546119,1.1634 1.546119,2.07843 0,0.23525 -0.04163,0.36969 -0.302762,0.97771 -0.301062,0.701 -1.444121,1.18032 -2.279571,0.95591 z"
             id="path77"
             inkscape:connector-curvature="0" />
          <path
             style="fill:#f9f9f9;stroke-width:0.04724703"
             d="m 5.3890902,239.50942 c -1.8730119,-0.29147 -2.9788511,-0.96526 -3.8723808,-2.35945 -0.336587,-0.52519 -0.3366637,-0.52457 0.069763,-0.56043 0.4796869,-0.0423 9.1591076,-0.0457 9.2660466,-0.004 0.130318,0.0513 0.07083,0.25446 -0.190897,0.65202 -0.268671,0.4081 -1.180372,1.33455 -1.4910193,1.51514 -0.5278993,0.30689 -1.5516224,0.62728 -2.4247765,0.75889 -0.5577523,0.0841 -0.8032115,0.0836 -1.3567357,-0.003 z"
             id="path81"
             inkscape:connector-curvature="0" />
        </g>
      </g>
    </g>
  </g>
</svg>
